PathFileType	4	(X/Y/Z)	/Users/itak/Documents/Research/Walk-IL/dataset/trc/00175_00008.trc
DataRate	CameraRate	NumFrames	NumMarkers	Units	OrigDataRate	OrigDataStartFrame	OrigNumFrames
100.000000	100.000000	4	53	mm	100.000000	441	589
Frame#	Time	RPSI			LPSI			L3			STRN			T10			C7			CLAV			RBAK			LBAK			LSHO			LUPA			LAEL			LAOL			LWTS			LWPS			LFRA			LIFD			LHPS			LHTS			RSHO			RUPA			RAEL			RAOL			RWTS			RWPS			RFRA			RIFD			RHTS			RHPS			RBHD			LFHD			RFHD			LBHD			LHIP			RHIP			RASI			LASI			LKNE			LTHI			LANK			LTIP			LTOE			LMT1			LMT5			LHEE			RKNE			RTHI			RANK			RTIP			RTOE			RMT1			RMT5			RHEE			
		X1	Y1	Z1	X2	Y2	Z2	X3	Y3	Z3	X4	Y4	Z4	X5	Y5	Z5	X6	Y6	Z6	X7	Y7	Z7	X8	Y8	Z8	X9	Y9	Z9	X10	Y10	Z10	X11	Y11	Z11	X12	Y12	Z12	X13	Y13	Z13	X14	Y14	Z14	X15	Y15	Z15	X16	Y16	Z16	X17	Y17	Z17	X18	Y18	Z18	X19	Y19	Z19	X20	Y20	Z20	X21	Y21	Z21	X22	Y22	Z22	X23	Y23	Z23	X24	Y24	Z24	X25	Y25	Z25	X26	Y26	Z26	X27	Y27	Z27	X28	Y28	Z28	X29	Y29	Z29	X30	Y30	Z30	X31	Y31	Z31	X32	Y32	Z32	X33	Y33	Z33	X34	Y34	Z34	X35	Y35	Z35	X36	Y36	Z36	X37	Y37	Z37	X38	Y38	Z38	X39	Y39	Z39	X40	Y40	Z40	X41	Y41	Z41	X42	Y42	Z42	X43	Y43	Z43	X44	Y44	Z44	X45	Y45	Z45	X46	Y46	Z46	X47	Y47	Z47	X48	Y48	Z48	X49	Y49	Z49	X50	Y50	Z50	X51	Y51	Z51	X52	Y52	Z52	X53	Y53	Z53	

442	4.41	-1171.987548828125	1074.123779296875	441.9179992675781	-1178.938232421875	1079.197143554688	319.886962890625	-1169.448974609375	1116.811889648438	386.1215209960938	-886.3821411132812	1296.736083984375	352.8106994628906	-1180.837158203125	1277.616821289062	387.6088562011719	-1091.907470703125	1538.907470703125	354.345947265625	-904.11865234375	1412.388427734375	338.0556945800781	-1161.188232421875	1376.408935546875	481.2258911132812	-1114.580932617188	1510.20947265625	256.2237548828125	-1051.20166015625	1483.376953125	169.3332061767578	-1109.812744140625	1351.173828125	113.5106353759766	-1126.459594726562	1135.244995117188	112.4474639892578	-1148.183715820312	1126.6845703125	198.4946594238281	-1028.172607421875	896.1891479492188	119.3208923339844	-1119.160888671875	879.9889526367188	108.5945434570312	-1126.536254882812	1023.103881835938	102.4510269165039	-1016.143371582031	708.9825439453125	142.6067504882812	-1101.480590820312	808.78759765625	109.823844909668	-1028.857055664062	815.8619384765625	102.4354705810547	-1007.319519042969	1517.64501953125	526.4769897460938	-1023.63037109375	1457.025024414062	602.3984985351562	-1052.053833007812	1172.63525390625	676.8834228515625	-1069.454956054688	1160.432495117188	580.9666748046875	-914.5692749023438	944.4359741210938	657.667724609375	-985.0576782226562	929.2799682617188	711.0625	-1026.61865234375	1100.303833007812	696.242431640625	-899.1548461914062	757.8291015625	638.63427734375	-885.1678466796875	851.970947265625	668.3018188476562	-954.520751953125	845.769287109375	708.8118286132812	-1011.0009765625	1695.678466796875	414.9338684082031	-875.8492431640625	1724.919677734375	246.3481597900391	-845.6187133789062	1733.940307617188	372.6336975097656	-1048.125244140625	1693.99267578125	282.4609680175781	-1082.891845703125	1020.5966796875	191.8648681640625	-1022.522338867188	1008.73291015625	560.8640747070312	-941.6593017578125	1037.098876953125	504.9004211425781	-957.1039428710938	1046.78662109375	247.3176879882812	-883.732177734375	540.5797119140625	187.3984222412109	-938.5886840820312	680.1632080078125	170.8044586181641	-1013.56982421875	72.42100524902344	166.3512268066406	-947.1104736328125	312.4417114257812	163.1385650634766	-797.2963256835938	83.63026428222656	170.8275909423828	-839.5493774414062	81.70613098144531	223.1595458984375	-907.7427978515625	61.14735412597656	119.3742218017578	-1058.5654296875	76.38897705078125	241.0908203125	-1021.734069824219	507.8935241699219	506.8357238769531	-978.18408203125	774.4954833984375	550.7796020507812	-1173.827392578125	33.98476028442383	491.1247253417969	-1023.311828613281	384.1509094238281	485.0837097167969	-950.458251953125	49.93423461914062	453.7938537597656	-1002.967590332031	42.79563903808594	409.9916381835938	-1057.083984375	34.35774230957031	524.7218627929688	-1215.167602539062	29.78734970092773	429.4490661621094	
443	4.42	-1175.513671875	1074.19970703125	441.6456298828125	-1181.805908203125	1079.39697265625	319.5440979003906	-1172.71044921875	1116.952026367188	385.8721008300781	-889.9443359375	1297.341064453125	354.1966247558594	-1184.476684570312	1277.657836914062	387.7786560058594	-1095.937744140625	1539.236328125	355.501708984375	-907.9563598632812	1412.927490234375	339.5985107421875	-1165.45166015625	1376.356811523438	481.6693115234375	-1118.229125976562	1510.6328125	257.242431640625	-1054.65283203125	1484.167358398438	170.4446105957031	-1113.224853515625	1351.944091796875	114.2621688842773	-1130.526733398438	1136.106811523438	112.9200439453125	-1152.414672851562	1127.506713867188	198.9042816162109	-1033.112915039062	896.7359619140625	119.5647277832031	-1124.14306640625	880.8377075195312	108.8944854736328	-1131.021484375	1023.960083007812	102.7793731689453	-1021.658264160156	709.5390625	142.57568359375	-1106.705932617188	809.58935546875	109.9996337890625	-1034.078735351562	816.4505004882812	102.5013046264648	-1011.841369628906	1517.638305664062	527.921630859375	-1028.3662109375	1456.845336914062	603.6650390625	-1056.954711914062	1172.610107421875	678.0634765625	-1074.290649414062	1160.383056640625	582.1302490234375	-921.092041015625	943.464111328125	659.1453857421875	-991.4931030273438	929.0487670898438	712.937255859375	-1031.9482421875	1100.284057617188	697.5413818359375	-907.5259399414062	756.6168212890625	640.433837890625	-892.4713745117188	850.7086791992188	669.8131103515625	-961.595703125	845.262939453125	710.7352905273438	-1015.167236328125	1696.15478515625	416.6309204101562	-880.248046875	1725.702026367188	247.9489440917969	-849.9308471679688	1734.66845703125	374.2466125488281	-1052.451416015625	1694.487426757812	284.2977600097656	-1085.1591796875	1020.819458007812	192.0009307861328	-1026.422973632812	1009.161499023438	561.30224609375	-945.1857299804688	1037.454711914062	505.744384765625	-959.4486083984375	1046.991821289062	248.0879058837891	-888.9083862304688	539.3306884765625	188.9539794921875	-942.3545532226562	679.4869995117188	171.9586791992188	-1028.422607421875	73.8572998046875	167.8846588134766	-956.6535034179688	312.4005737304688	164.6725006103516	-811.8836059570312	80.49219512939453	174.0168609619141	-854.4434814453125	79.74724578857422	225.9849090576172	-922.4349365234375	60.17144775390625	121.8011093139648	-1073.70166015625	78.92240905761719	242.3603363037109	-1024.202758789062	508.4055786132812	507.39111328125	-981.29052734375	774.9821166992188	551.5820922851562	-1173.993286132812	33.73603057861328	491.2952575683594	-1025.231567382812	384.7433776855469	485.5619506835938	-950.8599243164062	50.62149047851562	453.7859191894531	-1003.320373535156	43.13100814819336	410.0246276855469	-1057.180908203125	34.40093994140625	524.7056274414062	-1215.637817382812	29.7937183380127	429.4200439453125	
444	4.43	-1178.842895507812	1074.199096679688	441.3860168457031	-1184.534301757812	1079.505737304688	319.2173461914062	-1175.802490234375	1117.019897460938	385.6129150390625	-893.4209594726562	1297.96484375	355.5415954589844	-1187.996826171875	1277.628784179688	387.8274536132812	-1099.92822265625	1539.519653320312	356.5261840820312	-911.7119140625	1413.488403320312	341.0979309082031	-1169.6728515625	1376.221313476562	481.9787902832031	-1121.810180664062	1511.01025390625	258.1184692382812	-1057.984619140625	1484.944213867188	171.4407043457031	-1116.443115234375	1352.705444335938	114.8650665283203	-1134.395263671875	1136.975830078125	113.2156982421875	-1156.4921875	1128.328247070312	199.1270904541016	-1037.93310546875	897.2724609375	119.6065826416016	-1129.010375976562	881.6983032226562	108.9775695800781	-1135.321044921875	1024.836181640625	102.9061431884766	-1027.06884765625	710.082763671875	142.2131042480469	-1111.8212890625	810.4054565429688	109.9147872924805	-1039.199340820312	817.0552978515625	102.3014602661133	-1016.418029785156	1517.628662109375	529.2695922851562	-1033.159912109375	1456.643798828125	604.8217163085938	-1061.768310546875	1172.542602539062	679.005615234375	-1078.92626953125	1160.246215820312	583.0330810546875	-927.4917602539062	942.4613647460938	660.6105346679688	-997.8268432617188	928.833251953125	714.7216186523438	-1037.173706054688	1100.251953125	698.6506958007812	-915.7870483398438	755.3740234375	642.384765625	-899.6980590820312	849.4243774414062	671.4083862304688	-968.6174926757812	844.7908935546875	712.6771240234375	-1019.313415527344	1696.599731445312	418.2716369628906	-884.5488891601562	1726.464477539062	249.5227966308594	-854.1756591796875	1735.37158203125	375.837890625	-1056.701904296875	1694.972900390625	286.0476684570312	-1087.871826171875	1020.959289550781	192.0193023681641	-1030.047241210938	1009.573364257812	561.68408203125	-948.49267578125	1037.806518554688	506.4786987304688	-961.6788940429688	1047.180053710938	248.7329711914062	-894.3795776367188	537.9081420898438	190.5111236572266	-946.2891845703125	678.6456909179688	173.0896759033203	-1042.792236328125	75.07440948486328	169.3390655517578	-966.1173095703125	312.1770629882812	166.1761474609375	-826.1224975585938	77.46707153320312	177.3192596435547	-869.0858154296875	77.79819488525391	228.9105377197266	-936.6446533203125	59.10879135131836	124.2563934326172	-1088.400024414062	81.208984375	243.5063781738281	-1026.489379882812	508.8795471191406	507.8769226074219	-984.114013671875	775.4611206054688	552.2425537109375	-1174.13330078125	33.50530624389648	491.4564819335938	-1027.045043945312	385.3016357421875	485.9818115234375	-951.2225341796875	51.23360824584961	453.7803955078125	-1003.638244628906	43.45978546142578	410.0393371582031	-1057.263549804688	34.43709564208984	524.6865234375	-1216.05908203125	29.79449081420898	429.4175109863281	
445	4.44	-1181.966064453125	1074.151977539062	441.1561584472656	-1187.124877929688	1079.550415039062	318.9191589355469	-1178.718627929688	1117.042846679688	385.3578186035156	-896.8098754882812	1298.628662109375	356.8341979980469	-1191.39599609375	1277.545654296875	387.7712097167969	-1103.881103515625	1539.770263671875	357.4252319335938	-915.3795776367188	1414.09375	342.5440979003906	-1173.839599609375	1376.02294921875	482.16357421875	-1125.319091796875	1511.355346679688	258.8704833984375	-1061.19482421875	1485.723266601562	172.3306884765625	-1119.471313476562	1353.4853515625	115.3211441040039	-1138.038818359375	1137.872924804688	113.3381500244141	-1160.388061523438	1129.171508789062	199.168212890625	-1042.625732421875	897.80810546875	119.4592819213867	-1133.755493164062	882.598388671875	108.8422012329102	-1139.409301757812	1025.760009765625	102.8366394042969	-1032.411499023438	710.622314453125	141.5800018310547	-1116.832153320312	811.2576293945312	109.5875701904297	-1044.2197265625	817.6819458007812	101.8731460571289	-1021.042297363281	1517.63720703125	530.5140991210938	-1038.002319335938	1456.447875976562	605.8629760742188	-1066.513671875	1172.45361328125	679.6944580078125	-1083.362426757812	1160.058715820312	583.6574096679688	-933.760986328125	941.4649658203125	662.0838012695312	-1004.090637207031	928.65380859375	716.3885498046875	-1042.320678710938	1100.226196289062	699.5536499023438	-923.8787231445312	754.1443481445312	644.4957275390625	-906.8279418945312	848.15966796875	673.1190185546875	-975.609375	844.3780517578125	714.618408203125	-1023.432983398438	1697.032348632812	419.8474731445312	-888.74853515625	1727.216430664062	251.0697631835938	-858.3507080078125	1736.050415039062	377.4114685058594	-1060.8681640625	1695.476196289062	287.6975402832031	-1090.735595703125	1021.029357910156	191.9717864990234	-1033.387329101562	1009.978271484375	562.0086059570312	-951.586669921875	1038.1708984375	507.0951843261719	-963.8338623046875	1047.364501953125	249.2520904541016	-900.1705932617188	536.3394775390625	192.0659027099609	-950.42431640625	677.658447265625	174.2132568359375	-1056.599609375	76.01805114746094	170.7413177490234	-975.4983520507812	311.7681579589844	167.6594848632812	-839.9222412109375	74.57848358154297	180.7049255371094	-883.398193359375	75.84833526611328	231.9255523681641	-950.2928466796875	57.93730926513672	126.7421112060547	-1102.58203125	83.19234466552734	244.5627899169922	-1028.625732421875	509.3304443359375	508.2940368652344	-986.6845092773438	775.9405517578125	552.7636108398438	-1174.251953125	33.29109191894531	491.6102294921875	-1028.774291992188	385.8389587402344	486.3507385253906	-951.5565185546875	51.78641128540039	453.7788696289062	-1003.924438476562	43.78461074829102	410.0409851074219	-1057.335815429688	34.46866607666016	524.6624755859375	-1216.501953125	29.83028602600098	429.3827819824219	
